<svg height="1998" width="720" xmlns="http://www.w3.org/2000/svg">
<rect height="1998" fill="#555" width="720"></rect>
<text fill="#7f7" font-family="Courier New" font-size="12" xml:space="preserve">
<tspan x="10" y="26"></tspan>
<tspan x="10" y="42">&gt; npmdoc-tunnel@0.0.2 test /home/travis/build/npmdoc/node-npmdoc-tunnel</tspan>
<tspan x="10" y="58">&gt; (set -e; export PORT=$(utility2 shServerPortRandom); utility2 test test.js)</tspan>
<tspan x="10" y="74"></tspan>
<tspan x="10" y="90"></tspan>
<tspan x="10" y="106">[MODE_BUILD=npmTest] - 2017-04-08T08:14:46Z - npm-testing /home/travis/build/npmdoc/node-npmdoc-\</tspan>
<tspan x="10" y="122">tunnel</tspan>
<tspan x="10" y="138"></tspan>
<tspan x="10" y="154"></tspan>
<tspan x="10" y="170">covering $ /home/travis/.nvm/versions/node/v6.10.2/bin/node /home/travis/build/npmdoc/node-npmdo\</tspan>
<tspan x="10" y="186">c-tunnel/test.js</tspan>
<tspan x="10" y="202">merging file:///home/travis/build/npmdoc/node-npmdoc-tunnel/tmp/build/test-report.json to test-r\</tspan>
<tspan x="10" y="218">eport</tspan>
<tspan x="10" y="234">&gt; server listening on http-port 48721</tspan>
<tspan x="10" y="250">created apidoc file:///home/travis/build/npmdoc/node-npmdoc-tunnel/tmp/build/apidoc.html</tspan>
<tspan x="10" y="266"></tspan>
<tspan x="10" y="282"></tspan>
<tspan x="10" y="298">browserTest - created electron entry-page /home/travis/build/npmdoc/node-npmdoc-tunnel/tmp/elect\</tspan>
<tspan x="10" y="314">ron.15b4ca13bd80.9a338cb6237d9.html</tspan>
<tspan x="10" y="330"></tspan>
<tspan x="10" y="346">[node test-case 1 of 6 passed] - testCase_buildLib_default</tspan>
<tspan x="10" y="362">[node test-case 2 of 6 passed] - testCase_buildReadme_default</tspan>
<tspan x="10" y="378">[node test-case 3 of 6 passed] - testCase_buildTest_default</tspan>
<tspan x="10" y="394"></tspan>
<tspan x="10" y="410">browserTest - created electron entry-page /home/travis/build/npmdoc/node-npmdoc-tunnel/tmp/elect\</tspan>
<tspan x="10" y="426">ron.15b4ca13c040.ce731ee94d496.html</tspan>
<tspan x="10" y="442"></tspan>
<tspan x="10" y="458">Xlib:  extension "RANDR" missing on display ":99.0".</tspan>
<tspan x="10" y="474">Xlib:  extension "RANDR" missing on display ":99.0".</tspan>
<tspan x="10" y="490">&gt; server listening on http-port 35266</tspan>
<tspan x="10" y="506">merging file:///home/travis/build/npmdoc/node-npmdoc-tunnel/tmp/build/test-report.json to test-r\</tspan>
<tspan x="10" y="522">eport</tspan>
<tspan x="10" y="538">Xlib:  extension "RANDR" missing on display ":99.0".</tspan>
<tspan x="10" y="554">merging file:///home/travis/build/npmdoc/node-npmdoc-tunnel/tmp/build/test-report.json to test-r\</tspan>
<tspan x="10" y="570">eport</tspan>
<tspan x="10" y="586">[6056:0408/081447:WARNING:audio_manager.cc(314)] Multiple instances of AudioManager detected</tspan>
<tspan x="10" y="602">[6056:0408/081447:WARNING:audio_manager.cc(275)] Multiple instances of AudioManager detected</tspan>
<tspan x="10" y="618">[6093:0408/081447:ERROR:sandbox_linux.cc(343)] InitializeSandbox() called with multiple threads \</tspan>
<tspan x="10" y="634">in process gpu-process. </tspan>
<tspan x="10" y="650">Xlib:  extension "RANDR" missing on display ":99.0".</tspan>
<tspan x="10" y="666">[6055:0408/081447:WARNING:audio_manager.cc(314)] Multiple instances of AudioManager detected</tspan>
<tspan x="10" y="682">[6055:0408/081447:WARNING:audio_manager.cc(275)] Multiple instances of AudioManager detected</tspan>
<tspan x="10" y="698">[6115:0408/081447:ERROR:sandbox_linux.cc(343)] InitializeSandbox() called with multiple threads \</tspan>
<tspan x="10" y="714">in process gpu-process. </tspan>
<tspan x="10" y="730">[6055:0408/081447:ERROR:browser_gpu_channel_host_factory.cc(131)] Failed to create channel.</tspan>
<tspan x="10" y="746"></tspan>
<tspan x="10" y="762">browserTest - opened url http://127.0.0.1:48721?modeTest=1</tspan>
<tspan x="10" y="778"></tspan>
<tspan x="10" y="794"></tspan>
<tspan x="10" y="810">browserTest - opened url /home/travis/build/npmdoc/node-npmdoc-tunnel/tmp/build/apidoc.html</tspan>
<tspan x="10" y="826"></tspan>
<tspan x="10" y="842">[6056:0408/081449:INFO:CONSOLE(248)] "----------|-----------|-----------|-----------|-----------\</tspan>
<tspan x="10" y="858">|</tspan>
<tspan x="10" y="874">File      |   % Stmts |% Branches |   % Funcs |   % Lines |</tspan>
<tspan x="10" y="890">----------|-----------|-----------|-----------|-----------|</tspan>
<tspan x="10" y="906">----------|-----------|-----------|-----------|-----------|</tspan>
<tspan x="10" y="922">All files |       100 |       100 |       100 |       100 |</tspan>
<tspan x="10" y="938">----------|-----------|-----------|-----------|-----------|</tspan>
<tspan x="10" y="954">", source: file:///home/travis/build/npmdoc/node-npmdoc-tunnel/tmp/electron.15b4ca13c040.ce731ee\</tspan>
<tspan x="10" y="970">94d496.html (248)</tspan>
<tspan x="10" y="986">[6056:0408/081449:INFO:CONSOLE(248)] "created coverage file:///tmp/build/coverage.html/index.htm\</tspan>
<tspan x="10" y="1002">l", source: file:///home/travis/build/npmdoc/node-npmdoc-tunnel/tmp/electron.15b4ca13c040.ce731e\</tspan>
<tspan x="10" y="1018">e94d496.html (248)</tspan>
<tspan x="10" y="1034">[node test-case 4 of 6 passed] - testCase_buildApp_default</tspan>
<tspan x="10" y="1050"></tspan>
<tspan x="10" y="1066">browserTest - created screenCapture file:///home/travis/build/npmdoc/node-npmdoc-tunnel/tmp/buil\</tspan>
<tspan x="10" y="1082">d/screenCapture.npmTest.browser.%2Fhome%2Ftravis%2Fbuild%2Fnpmdoc%2Fnode-npmdoc-tunnel%2Ftmp%2Fb\</tspan>
<tspan x="10" y="1098">uild%2Fapidoc.html.png</tspan>
<tspan x="10" y="1114"></tspan>
<tspan x="10" y="1130"></tspan>
<tspan x="10" y="1146">browserTest - created screenCapture file:///home/travis/build/npmdoc/node-npmdoc-tunnel/tmp/buil\</tspan>
<tspan x="10" y="1162">d/screenCapture.npmTest.browser.%2F.png</tspan>
<tspan x="10" y="1178"></tspan>
<tspan x="10" y="1194">browserTest - created screenCapture file:///home/travis/build/npmdoc/node-npmdoc-tunnel/tmp/buil\</tspan>
<tspan x="10" y="1210">d/screenCapture.npmTest.browser.%2F.html</tspan>
<tspan x="10" y="1226"></tspan>
<tspan x="10" y="1242">browserTest - exit-code 0 - http://127.0.0.1:48721?modeTest=1</tspan>
<tspan x="10" y="1258"></tspan>
<tspan x="10" y="1274"></tspan>
<tspan x="10" y="1290">browserTest - merged coverage from /home/travis/build/npmdoc/node-npmdoc-tunnel/tmp/coverage.npm\</tspan>
<tspan x="10" y="1306">Test.browser.%2F.json</tspan>
<tspan x="10" y="1322"></tspan>
<tspan x="10" y="1338"></tspan>
<tspan x="10" y="1354">browserTest - merging test-report from /home/travis/build/npmdoc/node-npmdoc-tunnel/tmp/test-rep\</tspan>
<tspan x="10" y="1370">ort.npmTest.browser.%2F.json</tspan>
<tspan x="10" y="1386"></tspan>
<tspan x="10" y="1402">[node test-case 5 of 6 passed] - testCase_webpage_default</tspan>
<tspan x="10" y="1418">browserTest - created screenCapture file:///home/travis/build/npmdoc/node-npmdoc-tunnel/tmp/buil\</tspan>
<tspan x="10" y="1434">d/screenCapture.npmTest.browser.%2Fhome%2Ftravis%2Fbuild%2Fnpmdoc%2Fnode-npmdoc-tunnel%2Ftmp%2Fb\</tspan>
<tspan x="10" y="1450">uild%2Fapidoc.html.html</tspan>
<tspan x="10" y="1466"></tspan>
<tspan x="10" y="1482">browserTest - exit-code 0 - /home/travis/build/npmdoc/node-npmdoc-tunnel/tmp/build/apidoc.html</tspan>
<tspan x="10" y="1498"></tspan>
<tspan x="10" y="1514">[node test-case 6 of 6 passed] - testCase_buildApidoc_default</tspan>
<tspan x="10" y="1530">---------------------------|-----------|-----------|-----------|-----------|</tspan>
<tspan x="10" y="1546">File                       |   % Stmts |% Branches |   % Funcs |   % Lines |</tspan>
<tspan x="10" y="1562">---------------------------|-----------|-----------|-----------|-----------|</tspan>
<tspan x="10" y="1578">   node-npmdoc-tunnel/     |       100 |       100 |       100 |       100 |</tspan>
<tspan x="10" y="1594">      example.js           |       100 |       100 |       100 |       100 |</tspan>
<tspan x="10" y="1610">      lib.npmdoc_tunnel.js |       100 |       100 |       100 |       100 |</tspan>
<tspan x="10" y="1626">      test.js              |       100 |       100 |       100 |       100 |</tspan>
<tspan x="10" y="1642">---------------------------|-----------|-----------|-----------|-----------|</tspan>
<tspan x="10" y="1658">All files                  |       100 |       100 |       100 |       100 |</tspan>
<tspan x="10" y="1674">---------------------------|-----------|-----------|-----------|-----------|</tspan>
<tspan x="10" y="1690"></tspan>
<tspan x="10" y="1706">created coverage file:///home/travis/build/npmdoc/node-npmdoc-tunnel/tmp/build/coverage.html/ind\</tspan>
<tspan x="10" y="1722">ex.html</tspan>
<tspan x="10" y="1738">merging file:///home/travis/build/npmdoc/node-npmdoc-tunnel/tmp/build/test-report.json to test-r\</tspan>
<tspan x="10" y="1754">eport</tspan>
<tspan x="10" y="1770"></tspan>
<tspan x="10" y="1786">-------------------------------------------------------</tspan>
<tspan x="10" y="1802">| test-report - buildNpmdoc - node - linux v6.10.2 - 2017-04-08T08:14:07.543Z</tspan>
<tspan x="10" y="1818">|   54003 ms            0 failed        6 passed      |</tspan>
<tspan x="10" y="1834">-------------------------------------------------------</tspan>
<tspan x="10" y="1850"></tspan>
<tspan x="10" y="1866">created test-report file:///home/travis/build/npmdoc/node-npmdoc-tunnel/tmp/build/test-report.ht\</tspan>
<tspan x="10" y="1882">ml</tspan>
<tspan x="10" y="1898"></tspan>
<tspan x="10" y="1914"></tspan>
<tspan x="10" y="1930">npmTest - 0 failed tests</tspan>
<tspan x="10" y="1946"></tspan>
<tspan x="10" y="1962"></tspan>
<tspan x="10" y="1978">[MODE_BUILD=npmTest] - 2017-04-08T08:15:04Z - EXIT_CODE - 0</tspan>
</text>
</svg>
